<?xml version="1.0" standalone="no"?>
<!DOCTYPE svg PUBLIC "-//W3C//DTD SVG 20010904//EN"
 "http://www.w3.org/TR/2001/REC-SVG-20010904/DTD/svg10.dtd">
<svg version="1.0" xmlns="http://www.w3.org/2000/svg"
 width="500.000000pt" height="500.000000pt" viewBox="0 0 500.000000 500.000000"
 preserveAspectRatio="xMidYMid meet">
<metadata>
Created by potrace 1.14, written by Peter Selinger 2001-2017
</metadata>
<g transform="translate(0.000000,500.000000) scale(0.100000,-0.100000)"
fill="#000000" stroke="none">
<path d="M2240 4985 c-579 -64 -1091 -308 -1501 -715 -424 -421 -672 -951
-729 -1555 -71 -766 241 -1557 817 -2071 878 -782 2147 -859 3108 -189 944
659 1313 1890 889 2965 -282 712 -894 1269 -1628 1480 -305 88 -650 119 -956
85z m-1265 -1955 l0 -75 -267 -5 c-262 -5 -268 -5 -290 -28 -23 -22 -23 -27
-23 -253 l0 -231 28 -24 c28 -24 30 -24 215 -22 l187 3 3 102 3 102 -143 3
-143 3 0 75 0 75 204 3 c142 2 208 -1 217 -9 11 -9 14 -52 14 -203 0 -105 -5
-208 -10 -228 -6 -20 -24 -48 -41 -62 l-31 -26 -231 0 c-137 0 -248 5 -272 11
-60 17 -104 55 -134 118 -26 56 -26 57 -26 301 0 277 8 323 71 385 58 58 95
64 399 62 l270 -2 0 -75z m896 59 c14 -28 6 -118 -12 -130 -16 -10 -495 -12
-588 -3 l-61 7 0 67 c0 37 3 70 7 73 3 4 149 7 324 7 315 0 318 0 330 -21z
m904 -59 l0 -75 -232 -5 c-225 -5 -233 -6 -255 -28 -23 -22 -23 -27 -23 -253
l0 -231 28 -24 c28 -24 30 -24 245 -24 119 0 223 -4 230 -9 9 -5 12 -28 10
-77 l-3 -69 -230 -3 c-145 -2 -247 1 -275 8 -64 16 -108 54 -139 119 -25 54
-26 65 -29 264 -4 230 6 319 43 383 53 91 100 103 395 101 l235 -2 0 -75z
m383 68 c8 -8 12 -63 12 -180 l0 -168 58 1 c100 2 96 -2 202 184 l97 170 74 0
c66 0 74 -2 77 -20 1 -11 -47 -107 -108 -213 l-109 -193 33 -47 c65 -93 218
-371 213 -387 -10 -23 -148 -21 -169 3 -8 9 -48 76 -88 147 -40 72 -84 145
-97 163 -24 31 -25 32 -104 32 l-79 0 0 -169 c0 -133 -3 -171 -14 -180 -9 -7
-40 -11 -78 -9 l-63 3 -3 425 c-1 234 0 431 3 438 6 16 127 16 143 0z m1398
-3 c53 -15 100 -57 128 -113 27 -52 39 -192 33 -377 -7 -232 -30 -300 -120
-348 -39 -20 -58 -22 -246 -25 -222 -4 -275 3 -329 44 -72 55 -92 140 -92 388
0 205 10 282 46 344 50 85 101 100 345 101 136 1 199 -3 235 -14z m-2691 -420
l0 -70 -250 -5 -250 -5 0 -63 c0 -57 3 -66 28 -88 28 -24 30 -24 247 -24 207
0 220 -1 230 -19 13 -25 13 -112 0 -146 l-10 -27 -238 4 c-216 3 -241 5 -283
24 -94 43 -129 132 -129 325 l0 117 31 26 31 26 296 -2 297 -3 0 -70z m-565
-640 l30 -15 -22 -44 -21 -44 -33 14 c-66 28 -140 7 -174 -48 -68 -112 49
-236 174 -184 l33 14 21 -44 22 -44 -29 -14 c-112 -58 -276 -5 -330 107 -59
122 7 269 142 313 50 17 145 11 187 -11z m1181 14 c78 -24 141 -100 155 -187
21 -132 -88 -262 -220 -262 -122 0 -218 99 -219 225 -2 158 137 267 284 224z
m770 0 c78 -24 141 -100 155 -187 21 -132 -88 -262 -220 -262 -122 0 -218 99
-219 225 -2 158 137 267 284 224z m514 -24 c25 -14 45 -31 45 -37 0 -6 -13
-25 -29 -44 -26 -29 -31 -31 -43 -17 -7 9 -28 22 -46 30 -95 40 -179 -72 -137
-182 21 -55 47 -75 100 -75 43 1 65 13 83 47 18 32 16 33 -38 33 l-50 0 0 40
0 40 101 0 101 0 -4 -69 c-3 -60 -8 -75 -34 -107 -84 -104 -222 -110 -316 -14
-60 62 -78 130 -58 217 15 68 73 136 135 159 56 20 135 12 190 -21z m830 24
c59 -15 71 -30 55 -69 -17 -40 -19 -41 -69 -24 -48 16 -76 12 -91 -16 -12 -23
1 -34 84 -76 77 -38 110 -82 103 -137 -10 -72 -54 -112 -140 -123 -47 -7 -137
15 -171 40 -17 14 -17 16 5 55 12 23 25 41 28 41 3 0 20 -9 36 -20 58 -39 156
-17 129 28 -6 10 -37 31 -70 49 -80 43 -104 73 -104 129 0 56 23 92 75 115 47
22 70 23 130 8z m-3975 -44 l0 -45 -50 0 -50 0 0 -175 0 -175 -50 0 -50 0 0
175 0 175 -55 0 -55 0 0 45 0 45 155 0 155 0 0 -45z m290 0 l0 -45 -75 0 -75
0 0 -40 0 -40 70 0 70 0 0 -45 0 -45 -70 0 -70 0 0 -45 0 -45 75 0 75 0 0 -45
0 -45 -125 0 -125 0 0 220 0 220 125 0 125 0 0 -45z m560 -40 l0 -85 70 0 70
0 0 85 0 85 50 0 50 0 0 -220 0 -220 -50 0 -50 0 0 90 0 90 -70 0 -70 0 0 -90
0 -90 -50 0 -50 0 0 220 0 220 50 0 50 0 0 -85z m491 -47 l84 -133 3 133 3
132 49 0 50 0 0 -221 0 -220 -52 3 -52 3 -80 127 -81 127 -3 -129 -3 -130 -54
0 -55 0 0 220 0 220 53 0 53 0 85 -132z m819 -43 l0 -175 75 0 75 0 0 -45 0
-45 -125 0 -125 0 0 220 0 220 50 0 50 0 0 -175z m1210 -45 l0 -220 -50 0 -50
0 0 220 0 220 50 0 50 0 0 -220z m320 175 l0 -45 -75 0 -75 0 0 -40 0 -40 70
0 70 0 0 -45 0 -45 -70 0 -70 0 0 -45 0 -45 75 0 75 0 0 -45 0 -45 -125 0
-125 0 0 220 0 220 125 0 125 0 0 -45z"/>
<path d="M4123 2926 l-28 -24 0 -232 0 -232 28 -24 c27 -23 33 -24 203 -24
170 0 176 1 199 24 30 31 39 107 33 314 -4 168 -12 196 -54 212 -14 6 -99 10
-189 10 -159 0 -165 -1 -192 -24z"/>
<path d="M2351 1934 c-88 -74 -44 -234 64 -234 90 0 142 104 99 196 -31 65
-109 83 -163 38z"/>
<path d="M3121 1934 c-88 -74 -44 -234 64 -234 90 0 142 104 99 196 -31 65
-109 83 -163 38z"/>
</g>
</svg>
